<?xml version="1.0" encoding="UTF-8" standalone="no"?>
<svg
   xmlns:dc="http://purl.org/dc/elements/1.1/"
   xmlns:cc="http://creativecommons.org/ns#"
   xmlns:rdf="http://www.w3.org/1999/02/22-rdf-syntax-ns#"
   xmlns:svg="http://www.w3.org/2000/svg"
   xmlns="http://www.w3.org/2000/svg"
   xmlns:xlink="http://www.w3.org/1999/xlink"
   xmlns:sodipodi="http://sodipodi.sourceforge.net/DTD/sodipodi-0.dtd"
   xmlns:inkscape="http://www.inkscape.org/namespaces/inkscape"
   viewBox="0 0 251.99998 50"
   version="1.1"
   id="svg43"
   sodipodi:docname="logo tana.svg"
   width="251.99998"
   height="50"
   inkscape:version="0.92.1 r15371">
  <metadata
     id="metadata47">
    <rdf:RDF>
      <cc:Work
         rdf:about="">
        <dc:format>image/svg+xml</dc:format>
        <dc:type
           rdf:resource="http://purl.org/dc/dcmitype/StillImage" />
        <dc:title></dc:title>
      </cc:Work>
    </rdf:RDF>
  </metadata>
  <sodipodi:namedview
     pagecolor="#ffffff"
     bordercolor="#666666"
     borderopacity="1"
     objecttolerance="10"
     gridtolerance="10"
     guidetolerance="10"
     inkscape:pageopacity="0"
     inkscape:pageshadow="2"
     inkscape:window-width="1920"
     inkscape:window-height="1017"
     id="namedview45"
     showgrid="false"
     fit-margin-top="0"
     fit-margin-left="0"
     fit-margin-right="0"
     fit-margin-bottom="0"
     inkscape:zoom="1.7326757"
     inkscape:cx="275.91103"
     inkscape:cy="-40.367671"
     inkscape:window-x="-8"
     inkscape:window-y="-8"
     inkscape:window-maximized="1"
     inkscape:current-layer="svg43" />
  <defs
     id="defs3">
    <path
       id="a"
       d="m 22.85,392.94 c 29.44,-0.45 686.63,-1.9 831.86,-5.74 145.3,-3.86 24.6,-8.96 24.6,-8.96 0,0 -826.5,-5.1 -856.4,-4.53 -29.9,0.6 -29.4,19.7 0,19.3 z"
       inkscape:connector-curvature="0" />
  </defs>
  <g
     id="g41"
     transform="matrix(0.26932386,0,0,0.26769461,-0.14800402,-0.05889281)"
     style="fill:none;fill-rule:evenodd">
    <path
       d="M 233.2,60.23 H 217.53 V 15.9 H 72.45 V 60.23 H 56.8 v -60 h 176.4"
       id="path5"
       inkscape:connector-curvature="0"
       style="fill:#2e2f33" />
    <path
       d="M 213.2,60.23 H 197.3 V 36.13 H 163.07 V 151.1 h 24.58 V 167 h -40.5 V 20.47 h 66.04 M 142.8,167 H 102.56 V 151.1 H 126.9 V 36.12 H 92.7 v 24.1 H 77.02 V 20.47 h 65.8"
       id="path7"
       inkscape:connector-curvature="0"
       style="fill:#0cbeff" />
    <path
       d="m 187.65,187 h -85.07 v -15.67 h 85.07 m 249.07,-80 H 389.5 L 357.2,15.9 H 329.7 L 297.18,91.3 H 249.95 V 75.66 h 36.87 L 319.36,0.23 h 48.2 l 32.3,75.43 h 36.86"
       id="path9"
       inkscape:connector-curvature="0"
       style="fill:#2e2f33" />
    <path
       d="M 384.67,91.32 H 302 l 30.6,-70.85 h 21.7"
       id="path11"
       inkscape:connector-curvature="0"
       style="fill:#0cbeff" />
    <path
       d="m 447.8,187 h -75.18 v -15.67 h 51.33 L 391.4,95.9 h 45.32 v 15.67 h -21.45"
       id="path13"
       inkscape:connector-curvature="0"
       style="fill:#2e2f33" />
    <path
       d="m 416.96,167 h -44.34 v -15.9 h 20.48 l -16.87,-39.53 h -65.8 l -17.1,39.52 h 20.48 V 167 h -44.3 l 30.6,-71.1 h 86.6"
       id="path15"
       inkscape:connector-curvature="0"
       style="fill:#0cbeff" />
    <path
       d="m 313.8,187 h -75.18 l 32.54,-75.43 h -21.2 V 95.9 h 45.3 l -32.54,75.43 h 51.1 M 649.9,187 H 600.7 L 511.8,46.26 V 151.1 h 17.35 V 167 H 496.13 V 20.47 h 18.07 l 94.96,150.86 h 25.06 V 15.9 h -37.6 V 0.22 h 53.27"
       id="path17"
       inkscape:connector-curvature="0"
       style="fill:#2e2f33" />
    <path
       d="M 629.64,167 H 611.8 L 516.6,15.9 h -25.05 v 155.43 h 37.6 V 187 H 475.88 V 0.23 h 49.4 L 614,140.97 V 36.13 H 596.65 V 20.47 h 33"
       id="path19"
       inkscape:connector-curvature="0"
       style="fill:#0cbeff" />
    <path
       d="m 876.07,91.32 h -47.24 l -32.3,-75.43 h -27.47 l -32.53,75.4 H 689.3 V 75.6 h 36.86 L 758.7,0.22 h 48.2 l 32.3,75.44 h 36.87"
       id="path21"
       inkscape:connector-curvature="0"
       style="fill:#2e2f33" />
    <path
       d="m 824,91.32 h -82.65 l 30.6,-70.85 h 21.7"
       id="path23"
       inkscape:connector-curvature="0"
       style="fill:#0cbeff" />
    <path
       d="m 887.15,187 h -75.2 v -15.67 h 51.34 L 830.7,95.9 H 876 v 15.67 h -21.4"
       id="path25"
       inkscape:connector-curvature="0"
       style="fill:#2e2f33" />
    <path
       d="m 856.3,167 h -44.34 v -15.9 h 20.48 l -16.87,-39.53 h -65.8 l -17.1,39.52 h 20.5 V 167 H 708.8 l 30.62,-71.1 h 86.52"
       id="path27"
       inkscape:connector-curvature="0"
       style="fill:#0cbeff" />
    <path
       d="m 753.16,187 h -75.2 L 710.5,111.57 H 689.3 V 95.9 h 45.3 l -32.54,75.43 h 51.1"
       id="path29"
       inkscape:connector-curvature="0"
       style="fill:#2e2f33" />
    <path
       d="M 360.8,75.66 343.94,36.13 h -0.97 l -17.1,39.53 m 474.28,0 -16.87,-39.53 h -0.96 l -17.1,39.53"
       id="path31"
       inkscape:connector-curvature="0"
       style="fill:#ffffff" />
    <g
       transform="translate(5,-290)"
       id="g37">
      <use
         xlink:href="#a"
         id="use33"
         style="fill:#2e2f33"
         x="0"
         y="0"
         width="100%"
         height="100%" />
      <path
         d="m 22.88,395.44 c 5.56,-0.1 306.28,-1.23 429.52,-1.88 204.24,-1.08 344.6,-2.33 402.37,-3.87 27.14,-0.8 46.17,-1.6 57.82,-2.4 6.7,-0.5 11,-1 13.1,-1.6 0.6,-0.2 1.2,-0.4 1.6,-0.7 1,-0.66 1.8,-1.76 1.3,-3.24 -0.48,-1.48 -1.37,-1.9 -3.26,-2.4 -3.35,-0.87 -11.2,-1.67 -22.5,-2.43 -5.15,-0.35 -10.68,-0.67 -16.2,-0.95 l -5.34,-0.28 -1.5,-0.1 h -2.74 c -2.44,0 -3.83,-0.04 -6.2,-0.06 l -23.68,-0.16 -85.2,-0.4 -265.9,-1.56 c -15.38,-0.1 -30.54,-0.18 -45.44,-0.26 -256.46,-1.47 -414.94,-2.24 -427.86,-2 -14.92,0.3 -24.8,5.28 -24.72,12.54 0.1,7.26 10.08,11.92 24.8,11.7 z"
         id="path35"
         inkscape:connector-curvature="0"
         style="stroke:#ffffff;stroke-width:5" />
    </g>
    <path
       d="m 20,93 c 0,-2.2 1.8,-3.98 4,-3.95 l 165,2.08 c 2.2,0.02 4,1.84 4,4.05 v -2.93 c 0,2.22 -1.8,4.03 -4,4.06 l -165,2 c -2.2,0.1 -4,-1.7 -4,-3.9 z"
       id="path39"
       inkscape:connector-curvature="0"
       style="fill:#ffffff" />
  </g>
</svg>
