<?xml version="1.0" standalone="no"?>
<!DOCTYPE svg PUBLIC "-//W3C//DTD SVG 20010904//EN"
 "http://www.w3.org/TR/2001/REC-SVG-20010904/DTD/svg10.dtd">
<svg version="1.0" xmlns="http://www.w3.org/2000/svg"
 width="412.000000pt" height="412.000000pt" viewBox="0 0 412.000000 412.000000"
 preserveAspectRatio="xMidYMid meet">
<metadata>
Created by potrace 1.11, written by Peter Selinger 2001-2013
</metadata>
<g transform="translate(0.000000,412.000000) scale(0.100000,-0.100000)"
fill="#000000" stroke="none">
<path d="M299 3920 c-1 -3 -2 -272 -3 -597 -1 -388 2 -594 9 -596 9 -3 277 -1
298 2 4 1 7 199 7 441 l0 440 98 0 c247 0 2145 0 2455 0 l347 0 0 -440 c0
-412 1 -440 18 -441 56 -4 292 -3 293 1 4 17 3 1183 -1 1189 -6 8 -3519 9
-3521 1z"/>
<path d="M700 3123 l0 -398 155 0 c99 0 155 3 156 10 1 5 2 114 3 240 l1 230
340 0 340 0 2 -1147 3 -1148 -245 0 -245 0 0 -160 0 -160 404 0 403 0 -1 1463
-1 1462 -657 3 -658 2 0 -397z"/>
<path d="M2102 2055 l0 -1465 406 2 405 3 -1 125 c0 69 0 140 -1 158 l-1 32
-245 0 -245 0 0 1149 0 1149 343 -1 343 0 -1 -226 c-1 -124 1 -233 3 -241 3
-13 26 -15 155 -14 84 1 154 2 157 3 3 1 5 179 5 396 l0 395 -661 0 -662 0 0
-1465z"/>
<path d="M1214 501 c-2 -2 -4 -73 -4 -158 l0 -153 850 0 c803 0 850 1 851 18
4 77 0 284 -5 289 -7 7 -1685 11 -1692 4z"/>
</g>
</svg>
